# This file uses centimeters as units for non-parametric coordinates.

g default
v -3.332921 1.556057 1.352968
v -3.436058 1.504543 1.445816
v -3.483854 1.452234 1.502626
v 3.436070 1.504522 1.441733
v 3.332921 1.556057 1.349008
v 3.483864 1.452203 1.498441
v -3.483852 1.452237 -1.502625
v -3.436063 1.504538 -1.445842
v -3.332921 1.556057 -1.353036
v 3.483854 1.452234 -1.502626
v 3.436064 1.504536 -1.445843
v 3.332921 1.556057 -1.353036
v -3.954257 0.035637 1.954450
v -3.933551 -0.009401 1.918412
v -3.969106 0.086924 1.970229
v 3.933551 -0.009401 1.912921
v 3.954268 0.035675 1.948950
v 3.969097 0.086950 1.964720
v -3.969107 0.086921 -1.970230
v -3.954259 0.035649 -1.954480
v -3.933551 -0.009401 -1.918480
v 3.969106 0.086924 -1.970229
v 3.954259 0.035651 -1.954480
v 3.933551 -0.009401 -1.918480
vt 0.527158 0.818464
vt 0.535246 0.811059
vt 0.799879 0.810637
vt 0.543262 0.803272
vt 0.318359 0.160821
vt 0.528366 0.181475
vt 0.536402 0.190103
vt 0.544255 0.197753
vt 0.318618 0.840560
vt 0.797499 0.190573
vt 0.806864 0.818301
vt 0.984042 0.840608
vt 0.300168 0.819779
vt 0.789722 0.198527
vt 0.952773 0.831817
vt 0.022843 0.184149
vt 0.851392 0.017052
vt 0.304409 0.184358
vt 0.791927 0.802920
vt 0.804717 0.182716
vt 0.358510 0.156311
vt 0.022120 0.819640
vt 0.844567 0.040639
vt 0.981305 0.152122
vt 0.480979 0.955405
vt 0.007744 0.839990
vt 0.953553 0.158986
vt 0.480998 0.979041
vt 0.829440 0.957141
vt 0.832488 0.978811
vt 0.357862 0.841793
vt 0.335904 0.844569
vt 0.337367 0.152913
vt 0.483723 0.039703
vt 0.481466 0.016981
vt 0.011312 0.160906
vn 0.000615 0.323608 0.946191
vn 0.000615 0.323608 0.946191
vn 0.000528 0.546211 0.837647
vn 0.000528 0.546211 0.837647
vn 0.000000 0.546527 -0.837442
vn 0.000000 0.546527 -0.837442
vn -0.000000 0.324012 -0.946053
vn -0.000000 0.324012 -0.946053
vn 0.942256 0.334893 0.000000
vn 0.942256 0.334893 0.000000
vn 0.857250 0.514900 0.000002
vn 0.857250 0.514900 0.000002
vn -0.942257 0.334892 -0.000000
vn -0.942257 0.334892 -0.000000
vn -0.857234 0.514926 0.000000
vn -0.857234 0.514926 0.000000
vn 0.157108 0.972742 0.170557
vn 0.157006 0.972766 -0.170515
vn -0.156984 0.972770 -0.170515
vn -0.156887 0.972777 0.170560
vn -0.738231 0.674548 0.000000
vn -0.738231 0.674548 0.000000
vn -0.446846 0.894611 -0.000000
vn -0.446846 0.894611 -0.000000
vn 0.000290 0.874251 0.485474
vn 0.000290 0.874251 0.485474
vn 0.000408 0.735313 0.677727
vn 0.000408 0.735313 0.677727
vn 0.446905 0.894582 0.000002
vn 0.446905 0.894582 0.000002
vn 0.738273 0.674502 0.000003
vn 0.738273 0.674502 0.000003
vn 0.000000 0.735534 -0.677487
vn 0.000000 0.735534 -0.677487
vn 0.000000 0.874315 -0.485359
vn 0.000000 0.874315 -0.485359
vn -0.000000 -1.000000 0.000000
vn -0.000000 -1.000000 0.000000
vn -0.000000 -1.000000 0.000000
vn -0.000000 -1.000000 0.000000
vn -0.908592 -0.417686 -0.000000
vn -0.908592 -0.417686 -0.000000
vn -0.908592 -0.417686 -0.000000
vn -0.908592 -0.417686 -0.000000
vn -0.960543 -0.278131 0.000000
vn -0.960543 -0.278131 0.000000
vn -0.960543 -0.278131 0.000000
vn -0.960543 -0.278131 0.000000
vn 0.000665 -0.294014 0.955801
vn 0.000665 -0.294014 0.955801
vn 0.000665 -0.294014 0.955801
vn 0.000665 -0.294014 0.955801
vn 0.000546 -0.624566 0.780972
vn 0.000546 -0.624566 0.780972
vn 0.000546 -0.624566 0.780972
vn 0.000546 -0.624566 0.780972
vn 0.960587 -0.277979 0.000002
vn 0.960587 -0.277979 0.000002
vn 0.960587 -0.277979 0.000002
vn 0.960587 -0.277979 0.000002
vn 0.908619 -0.417627 0.000000
vn 0.908619 -0.417627 0.000000
vn 0.908619 -0.417627 0.000000
vn 0.908619 -0.417627 0.000000
vn 0.000000 -0.624269 -0.781209
vn 0.000000 -0.624269 -0.781209
vn 0.000000 -0.624269 -0.781209
vn 0.000000 -0.624269 -0.781209
vn 0.000000 -0.293636 -0.955917
vn 0.000000 -0.293636 -0.955917
vn 0.000000 -0.293636 -0.955917
vn 0.000000 -0.293636 -0.955917
g pCube1
f 15/31/1 18/21/2 6/6/3 3/1/4
f 7/11/5 10/20/6 22/27/7 19/15/8
f 18/34/9 22/23/10 10/20/11 6/6/12
f 19/29/13 15/25/14 3/1/15 7/11/16
f 5/8/17 12/14/18 9/19/19 1/4/20
f 3/1/15 2/2/21 8/3/22 7/11/16
f 2/2/23 1/4/20 9/19/19 8/3/24
f 1/4/20 2/2/25 4/7/26 5/8/17
f 2/2/27 3/1/4 6/6/3 4/7/28
f 5/8/17 4/7/29 11/10/30 12/14/18
f 4/7/31 6/6/12 10/20/11 11/10/32
f 7/11/5 8/3/33 11/10/34 10/20/6
f 8/3/35 9/19/19 12/14/18 11/10/36
f 21/22/37 24/16/38 16/18/39 14/13/40
f 14/13/41 13/9/42 20/26/43 21/22/44
f 13/28/45 15/25/46 19/29/47 20/30/48
f 15/31/49 13/32/50 17/33/51 18/21/52
f 13/9/53 14/13/54 16/18/55 17/5/56
f 18/34/57 17/35/58 23/17/59 22/23/60
f 17/5/61 16/18/62 24/16/63 23/36/64
f 21/22/65 20/26/66 23/36/67 24/16/68
f 20/12/69 19/15/70 22/27/71 23/24/72
